{"title":"The Hustle 2011 DVDRiP XViD - IMAGiNE [SeedPeer]","uid":6636194,"size":1486065940,"categoryP":"video","categoryS":"movies","magnet":"?xt=urn:btih:e34ac741cdcb92c695cf7955474b771303465278&amp;dn=The+Hustle+2011+DVDRiP+XViD+-+IMAGiNE+%5BSeedPeer%5D&amp;tr=udp%3A%2F%2Ftracker.openbittorrent.com%3A80&amp;tr=udp%3A%2F%2Fopen.demonii.com%3A1337&amp;tr=udp%3A%2F%2Ftracker.coppersurfer.tk%3A6969&amp;tr=udp%3A%2F%2Fexodus.desync.com%3A6969","seeders":2,"leechers":0,"uploader":"J.R.Dobbs","files":-1,"time":1314565764,"description":"Another Fine Release Brought to you from - \nIMAGiNE   \n\n\n********************************************************************\n**********************                         \n\nThe Hustle 2011 DVDRiP XViD - IMAGiNE\n\nDETAILS:\n\n\nRipper ...........: IMAGiNE                                        \nIMDB Rating.......:4.0/10                            \n\nVideo Codec.......: XVID                                         \nRelease Date......:26/08/11\n\nAudio Codec.......:AC3                                           \nTheatre Date......:06/07/11\n\nAudio Bitrate.....:256                                              \nRuntime.......:1h 32mn\n\nSubtitles.........:NIL                                              \nLanguage..........:ENGLISH\n\nResolution...... 720 x 304                                      \nIMDb URL.......... http://www.imdb.com/title/tt1119186/\n\nVideo\n\nID                               : 0\n\nFormat                           : MPEG-4 Visual\n\nFormat profile                   : Advanced Simple@L5\n\nFormat settings, BVOP            : 2\n\nFormat settings, QPel            : No\n\nFormat settings, GMC             : No warppoints\n\nFormat settings, Matrix          : Default (MPEG)\n\nMuxing mode                      : Packed bitstream\n\nCodec ID                         : XVID\n\nCodec ID/Hint                    : XviD\n\nDuration                         : 1h 37mn\n\nBit rate                         : 1 755 Kbps\n\nWidth                            : 720 pixels\n\nHeight                           : 304 pixels\n\nDisplay aspect ratio             : 2.35:1\n\nFrame rate                       : 23.976 fps\n\nColor space                      : YUV\n\nChroma subsampling               : 4:2:0\n\nBit depth                        : 8 bits\n\nScan type                        : Progressive\n\nCompression mode                 : Lossy\n\nBits/(Pixel*Frame)               : 0.334\n\nStream size                      : 1.19 GiB (87%)\n\nWriting library                  : XviD 64\n\n\nAudio\n\nID                               : 1\n\nFormat                           : AC-3\n\nFormat/Info                      : Audio Coding 3\n\nMode extension                   : CM (complete main)\n\nCodec ID                         : 2000\n\nDuration                         : 1h 36mn\n\nBit rate mode                    : Constant\n\nBit rate                         : 256 Kbps\n\nChannel(s)                       : 6 channels\n\nChannel positions                : Front: L C R, Side: L R, LFE\n\nSampling rate                    : 48.0 KHz\n\nBit depth                        : 16 bits\n\nCompression mode                 : Lossy\n\nStream size                      : 178 MiB (13%)\n\nAlignment                        : Aligned on interleaves\n\nInterleave, duration             : 42 ms (1.00 video frame)\n\nSOURCES:\n\nVIDEO: .............. Thanks \n\nAUDIO: .............. Thanks Matey \n\n\nNOTES:\n\nIMAGiNE bringing you another release..........\n\nTha Hustel DVDRiP............\n\nNot much to say here folks, made a script to\n\ncrop size and sharpen then muxed the ac3\n\nback to our encode \n\nEnjoy!\n\nSCREENS: &lt;a href=&quot;\nhttp://i1120.photobucket.com/albums/l493/imran5230/jgdne.png&quot; rel=&quot;nofollow&quot; target=&quot;_NEW&quot;&gt;\nhttp://i1120.photobucket.com/albums/l493/imran5230/jgdne.png&lt;/a&gt;\n\n\n\n\n\n\n","torrent":{"xt":"urn:btih:e34ac741cdcb92c695cf7955474b771303465278","amp;dn":"The+Hustle+2011+DVDRiP+XViD+-+IMAGiNE+%5BSeedPeer%5D","amp;tr":["udp%3A%2F%2Ftracker.openbittorrent.com%3A80","udp%3A%2F%2Fopen.demonii.com%3A1337","udp%3A%2F%2Ftracker.coppersurfer.tk%3A6969","udp%3A%2F%2Fexodus.desync.com%3A6969"],"infoHash":"e34ac741cdcb92c695cf7955474b771303465278","infoHashBuffer":{"type":"Buffer","data":[227,74,199,65,205,203,146,198,149,207,121,85,71,75,119,19,3,70,82,120]},"announce":[],"urlList":[]}}